# Blender v2.60 (sub 0) OBJ File: ''
# www.blender.org
mtllib cornell.mtl
o Mesh_Mesh_cornell
v 5.511279 -0.000152 0.001829
v 5.511279 -0.000149 -5.498171
v 0.011279 -0.000152 0.001829
v 0.011279 -0.000149 -5.498171
v 5.511279 5.499851 -5.498168
v 0.011279 5.499851 -5.498168
v 3.011279 5.499849 -2.498168
v 5.511279 5.499848 0.001831
v 0.011279 5.499848 0.001831
v 3.011279 5.499849 -2.998168
v 2.511279 5.499849 -2.498168
v 2.511279 5.499849 -2.998168
v 3.161279 1.649850 -2.718171
v 2.661279 -0.000151 -1.138171
v 3.161279 -0.000151 -2.718171
v 2.661279 1.649849 -1.138171
v 4.741279 -0.000151 -2.248171
v 4.741279 1.649849 -2.248171
v 4.261279 1.649849 -0.648171
v 4.261279 -0.000151 -0.648171
v 2.421279 3.299851 -4.558169
v 0.841279 -0.000149 -4.058171
v 2.421279 -0.000149 -4.558171
v 0.841279 3.284922 -4.058169
v 2.911279 -0.000151 -2.958171
v 2.911279 3.299850 -2.958170
v 1.331279 3.284921 -2.468170
v 1.331279 -0.015079 -2.468171
vn 0.000000 1.000000 0.000001
vn 0.000000 -0.000001 1.000000
vn 0.000000 -1.000000 -0.000001
vn 0.000001 -1.000000 0.000000
vn -0.000001 -1.000000 -0.000000
vn -0.953400 0.000000 -0.301709
vn 0.285121 0.000000 -0.958492
vn 0.000000 1.000000 0.000000
vn -0.292826 -0.000000 0.956166
vn 0.957826 -0.000000 0.287348
vn -0.301709 0.000000 -0.953400
vn 0.956166 0.000000 -0.292826
vn -0.008613 0.999959 0.002639
vn -0.008624 0.999959 0.002658
vn -0.955649 -0.000000 0.294508
vn 0.296209 -0.000000 0.955123
vn -1.000000 0.000000 0.000000
vn 1.000000 -0.000000 0.000000
usemtl white
s off
f 1//1 2//1 3//1
f 2//1 4//1 3//1
f 2//2 5//2 4//2
f 5//2 6//2 4//2
f 7//3 8//3 9//3
f 7//3 5//3 8//3
f 10//4 5//4 7//4
f 6//3 5//3 10//3
f 11//3 7//3 9//3
f 6//3 11//3 9//3
f 6//5 12//5 11//5
f 6//3 10//3 12//3
f 13//6 15//6 14//6
f 16//6 13//6 14//6
f 15//7 13//7 17//7
f 13//7 18//7 17//7
f 18//8 13//8 19//8
f 13//8 16//8 19//8
f 16//9 14//9 20//9
f 19//9 16//9 20//9
f 17//10 18//10 20//10
f 18//10 19//10 20//10
f 21//11 23//11 22//11
f 24//11 21//11 22//11
f 23//12 21//12 25//12
f 21//12 26//12 25//12
f 21//13 24//13 26//13
f 26//14 24//14 27//14
f 24//15 22//15 28//15
f 27//15 24//15 28//15
f 25//16 26//16 28//16
f 26//16 27//16 28//16
usemtl green
f 8//17 5//17 2//17
f 2//17 1//17 8//17
usemtl red
f 6//18 9//18 4//18
f 4//18 9//18 3//18
