# Blender v2.60 (sub 0) OBJ File: ''
# www.blender.org
mtllib cornell.mtl

v 5.500000 0.000000 0.000000
v 5.500000 0.000001 -5.500000
v -0.000000 0.000000 0.000000
v -0.000000 0.000001 -5.500000
v 5.500000 5.500001 -5.499999
v -0.000000 5.500001 -5.499999
v -0.000000 5.500000 0.000001
v 5.500000 5.500000 0.000001
v 3.000000 5.500000 -2.499999
v 3.000000 5.500000 -2.999999
v 2.500000 5.500000 -2.499999
v 2.500000 5.500000 -2.999999
v 3.150000 1.650000 -2.720000
v 3.150000 0.000000 -2.720000
v 2.650000 0.000000 -1.140000
v 2.650000 1.650000 -1.140000
v 4.730000 0.000000 -2.250000
v 4.730000 1.650000 -2.250000
v 4.250000 1.650000 -0.650000
v 4.250000 0.000000 -0.650000
v 2.410000 3.300001 -4.559999
v 2.410000 0.000001 -4.560000
v 0.830000 0.000001 -4.060000
v 0.830000 3.300001 -4.059999
v 2.900000 0.000000 -2.960000
v 2.900000 3.300000 -2.960000
v 1.320000 3.300000 -2.470000
v 1.320000 0.000000 -2.470000

vn 0.000000 -1.000000 -0.000000
vn 0.000000 0.000000 -1.000000
vn 0.000000 1.000000 0.000000
vn -0.953400 0.000000 -0.301709
vn 0.285121 0.000000 -0.958492
vn -0.292826 -0.000000 0.956166
vn 0.957826 -0.000000 0.287348
vn -0.301709 0.000000 -0.953400
vn 0.956166 0.000000 -0.292826
vn -0.955649 -0.000000 0.294508
vn 0.296209 -0.000000 0.955123
vn -1.000000 0.000000 -0.000000
vn 1.000000 0.000000 -0.000000

usemtl white

f 1//1 3//1 2//1
f 2//1 3//1 4//1
f 2//2 4//2 5//2
f 5//2 4//2 6//2
f 9//3 7//3 8//3
f 9//3 8//3 5//3
f 10//3 9//3 5//3
f 6//3 10//3 5//3
f 11//3 7//3 9//3
f 6//3 7//3 11//3
f 6//3 11//3 12//3
f 6//3 12//3 10//3
f 13//4 14//4 15//4
f 16//4 13//4 15//4
f 14//5 13//5 17//5
f 13//5 18//5 17//5
f 18//3 13//3 19//3
f 13//3 16//3 19//3
f 16//6 15//6 20//6
f 19//6 16//6 20//6
f 17//7 18//7 20//7
f 18//7 19//7 20//7
f 21//8 22//8 23//8
f 24//8 21//8 23//8
f 22//9 21//9 25//9
f 21//9 26//9 25//9
f 21//3 24//3 26//3
f 26//3 24//3 27//3
f 24//10 23//10 28//10
f 27//10 24//10 28//10
f 25//11 26//11 28//11
f 26//11 27//11 28//11

usemtl red
f 6//12 4//12 7//12
f 4//12 3//12 7//12

usemtl green
f 8//13 2//13 5//13
f 8//13 1//13 2//13
